<?xml version="1.0" encoding="utf-8"?>
<!-- Generator: Adobe Illustrator 24.1.3, SVG Export Plug-In . SVG Version: 6.00 Build 0)  -->
<svg version="1.1" id="Layer_1" xmlns="http://www.w3.org/2000/svg" xmlns:xlink="http://www.w3.org/1999/xlink" x="0px" y="0px"
	 viewBox="0 0 776 803" style="enable-background:new 0 0 776 803;" xml:space="preserve">
<style type="text/css">
	.st0{fill:none;stroke:#000000;stroke-miterlimit:10;}
	.st1{fill:#FFFFFF;}
</style>
<g>
	<g>
		<path class="st0" d="M347.56,16.83c0.9-0.92,2.17-1.69,2.61-2.79c0.92-2.26,1.4-4.7,2.05-7.07c0.47-0.09,0.93-0.17,1.4-0.26
			c0.95,3.28,2.04,6.52,2.81,9.84c0.9,3.88,1.35,7.86,2.35,11.71c0.29,1.11,1.78,1.91,3.6,3.73c-1.32,3.9-3.18,8.96-4.72,14.1
			c-0.75,2.51-1.16,5.19-1.26,7.81c-0.28,7.15-0.96,14.37-0.26,21.44c0.66,6.62,2.82,13.11,4.48,19.62
			c1.23,4.81,1.67,9.45,1.56,14.55c-0.11,5.42-2.78,8.52-4.99,12.46c-1.19,2.11-1.86,4.6-2.34,7c-1.28,6.33-2.44,12.69-3.39,19.07
			c-0.26,1.79,0.39,3.71,0.69,6.15c2.67-1.38,4.24-2.19,7.2-3.72c0,6.53-0.11,12.06,0.05,17.58c0.08,2.72-0.92,6.4,4.46,6.46
			c-0.24-3.33-0.46-6.5-0.69-9.66c0.56-0.09,1.12-0.18,1.68-0.27c0.42,2.69,1.72,5.59,1.11,8.02c-1.73,6.89,0.96,12.75,3.19,18.81
			c0.75,2.04,1.53,4.07,2.57,6.84c3.54,0.98,7.99,2.2,12.43,3.43c-0.09,0.5-0.18,1.01-0.27,1.51c-3.15,0-6.31,0-10.03,0
			c0.38,1.9,0.3,4,0.92,4.23c4.88,1.82,9.92,4.41,14.87,4.32c2.13-0.04,4.35-5.76,6.13-9.11c0.61-1.15,0.12-2.95-0.03-4.44
			c-0.39-3.69-0.37-6.45,3.51-9.27c2.32-1.68,2.24-7.11,2.59-10.92c0.3-3.3-0.31-6.69-0.59-11.3c2.38,1.82,3.59,2.74,5.66,4.33
			c0-4.89-0.06-8.83,0.02-12.76c0.06-3.05,0.72-5.51,4.68-5.77c0.98-0.07,2.58-2.35,2.6-3.64c0.19-11.57-0.76-22.88-7.08-33.2
			c-1.63-2.66-2.53-6.54-2.04-9.59c1.46-9.05,3.95-17.94,5.69-26.95c0.71-3.67,0.83-7.52,0.72-11.27
			c-0.18-6.45-0.5-12.92-1.28-19.31c-0.3-2.43-2.02-4.68-3.01-6.84c-0.36-3.45-0.74-6.99-1.1-10.42c0.33,0.12,1.27,0.48,2.35,0.89
			c1.66-8.41-0.63-17.43,6.5-25.63c0.76,4.14,1.48,7.21,1.86,10.32c0.72,5.87,1.26,11.76,1.84,17.65c0.06,0.64-0.09,1.31-0.08,1.96
			c0.13,5.89-0.01,11.81,0.5,17.67c0.35,4.01,1.61,7.95,3.32,12.07c0.84-3.23,1.69-6.45,2.53-9.68c0.49-0.2,0.98-0.39,1.46-0.59
			c0.81,1.67,2.55,3.51,2.29,4.98c-1.26,6.88-2.51,13.65,1.7,20.23c-0.52,0.25-1.04,0.5-1.56,0.75c-1.91-2.84-3.81-5.69-5.72-8.53
			c-0.65,0.12-1.29,0.23-1.94,0.35c3.47,7.84-0.88,13.54-4.2,19.62c-3.07,5.61-3.04,11.32,0.08,17.14
			c3.52,6.58,6.6,13.4,10.07,20.52c3.4-1.24,6.57-2.61,9.88-3.47c1.13-0.29,2.6,0.71,3.91,1.12c-0.82,1.24-1.73,3.6-2.44,3.54
			c-8.28-0.7-8.95,5.45-10.37,11.03c-1.11,4.35-2.05,8.77-3.5,13.01c-1.13,3.3-0.97,5.56,4.18,6.47
			c-8.81,3.5-10.36,10.3-12.13,17.41c-1.6,6.46-4.34,12.68-7.07,18.79c-2.19,4.9-3.49,9.67-1.74,14.92
			c3.06,9.15,6.12,18.29,9.14,27.45c1.33,4.03,1.06,8.47,5.78,11.31c1.86,1.12,1.53,5.89,2.37,9.8c3.9,2.22,8.45,0.44,10.47-5.4
			c0.91-2.64,0.93-5.57,1.63-8.3c1.09-4.22,3.88-4.98,6.8-1.83c2.47,2.66,4.9,2.53,7.39,0.32c1.33-1.18,2.39-2.64,4.58-5.11
			c-0.49,5.9-0.86,10.26-1.24,14.91c2.43,0.61,4.7,1.18,6.97,1.74c0.06,0.48,0.11,0.97,0.17,1.45c-9.93,3.78-19.87,7.56-29.98,11.4
			c0.34,4.53,3.49,10.12-4.94,11.68c1.04-2.71,1.93-5.01,3.04-7.9c-4.19,0.98-7.84,1.83-11.97,2.8c0.67,4.65,1.31,9.03,2.01,13.85
			c4.18-1.31,8.36-7.91,12.33-0.29c-7.82,5.96-9.13,15.23-3,25.26c2.13,3.49,5.09,6.61,8.16,9.36c4.01,3.6,13.58,1.05,16.57-4.08
			c1.5-2.58,2.62-5.44,4.41-7.79c0.94-1.23,3.82-2.68,4.31-2.26c2.31,1.98,4.27,4.46,5.9,7.05c0.28,0.44-1.48,2.54-2.64,3.41
			c-1.98,1.49-4.13,2.9-6.41,3.85c-4.28,1.79-5.23,5.01-5.85,9.33c-0.9,6.33,0.72,10.57,6.69,13.02c5.97,2.45,11.9,4.97,17.86,7.45
			c3.53,1.47,5.45,0.27,6.67-3.36c0.57-1.71,2.49-2.96,3.79-4.43c1.17,1.65,2.49,3.22,3.47,4.98c0.86,1.54,1.34,3.3,2.06,5.15
			c-2.4,0-4.83,0-7.25,0c-0.1,0.53-0.19,1.05-0.29,1.58c5.18,0.88,10.36,1.77,14.52,2.48c2.55-5.42,4.25-10.27,6.97-14.46
			c2.96-4.57,2.98-8.86,0.12-14.38c2.74,1.51,4.42,2.43,6.74,3.71c1.21-7.03,0.92-14.29,6.1-21.18c0.51,4.23,0.88,7.23,1.31,10.73
			c4.2-1.15,7.97-2.19,13.51-3.71c-6.03,6.33-5.47,11.57,0.55,16.54c-8.1,3.77-15.58,7.26-21.94,10.22
			c-1.01,3.89-1.78,6.88-2.54,9.85c0.11,0.08,0.32,0.27,0.37,0.24c6.69-4.74,13.3-2.64,20.22-0.26c12.1,4.17,24.39,7.78,36.59,11.69
			c4.37,1.4,8.36,0.94,12.49-1.22c2.87-1.5,6.38-1.72,9.39-3.01c8.13-3.48,17.79-3.68,24.08-11.2c0.56-0.67,2.08-0.55,3.17-0.77
			c1.9-0.38,3.79-0.95,5.7-1.07c2.21-0.14,4.45,0.11,6.68,0.22c1.19,0.06,2.53,0.58,3.52,0.19c3.25-1.27,6.54-2.59,9.47-4.43
			c1.3-0.82,2.15-2.82,2.58-4.45c0.7-2.67-0.31-6.32,5.3-6.16c-0.92,3.6-1.66,6.92-2.63,10.16c-0.78,2.63-0.34,4.29,2.41,5.51
			c7.9,3.5,15.64,7.33,23.53,10.86c4.24,1.9,7.95,0.98,11.39-2.36c1.96-1.9,4.51-3.44,7.07-4.44c6.76-2.64,6.82-2.49,3.95-8.3
			c4.21,1.04,8.85,2.18,13.93,3.43c-0.15,0.78-0.43,2.32-0.79,4.26c5.07,2.59,12.56,2.02,14.24,10.13c-4.02,0-7.84,0.48-11.5-0.1
			c-7.35-1.16-14.21-0.17-20.89,3.01c-10.97,5.22-21.52,5.78-32.94-0.1c-10.4-5.36-21.59-7.66-33.6-2.41
			c-9.02,3.94-19.01,5.61-28.46,8.63c-3.05,0.97-5.78,2.99-8.62,4.59c-0.7,0.39-1.18,1.18-1.88,1.54c-2.31,1.21-5.96,1.76-6.73,3.57
			c-1.32,3.12-0.82,7-1.17,10.55c-0.29,2.93-0.69,5.85-1.08,9.08c0.55,0.09,2.48,0.6,4.42,0.65c3.39,0.09,6.06,0.88,7.54,4.41
			c0.5,1.2,2.06,2.3,3.37,2.75c5.47,1.91,11.05,3.49,16.55,5.31c6.52,2.16,11.21-0.93,15.62-6.08c1.41,5.22,2.61,9.65,3.77,13.93
			c7.71-0.59,15.23-0.6,22.51-1.93c3.98-0.73,7.51-3.79,11.33-5.63c1.7-0.82,3.58-1.56,5.43-1.74c12.54-1.24,23.7,4.09,35.27,7.51
			c2.04,0.6,4.5-0.28,6.77-0.37c5.76-0.24,11.57-0.87,17.28-0.43c3.08,0.24,5.4,0.72,7.28-2.31c0.59-0.95,2.16-1.29,2.74-1.61
			c0.73,2.54,1.27,4.45,2.18,7.62c3.58-5.02,6.34-8.89,9.81-13.75c-0.36,7.78,5.06,7.49,9.41,8.64c3.94,1.04,7.87,2.12,11.8,3.18
			c-0.11,0.75-0.23,1.49-0.34,2.24c-3.7,0-7.57,0.68-11.08-0.15c-6.49-1.52-11.27-0.42-13.74,6.85c-7.25-5.48-14.87-6.18-23.03-4.57
			c-3.91,0.77-6.1,2.48-7.14,6.45c-0.39,1.5-2.77,3.52-4.22,3.5c-3.05-0.04-6.23-2.02-8.23,2.03c-2.06,4.2-1.23,7.73,2.63,10.52
			c-3.65,1.27-7.08,2.46-10.46,3.64c1.11,3.6,2.01,6.5,3.15,10.22c-13.69-4.95-15.48-8.59-12.03-23.49
			c1.82,3.79,3.34,6.97,4.87,10.15c0.43,0.21,0.86,0.42,1.29,0.64c-0.47-9.42,4.47-15.01,12.46-19.01
			c-10.16,0.98-17.23-5.78-25.77-7.73c-2.63-0.6-6.53-0.18-8.45,1.44c-5.99,5.05-13,7.25-20.24,9.2c-0.6,0.16-1.12,0.6-2,1.09
			c1.15,4.69,2.29,9.32,3.42,13.95c-5.21,1.13-5.61,0.5-6.65-10.37c-4.33-0.58-8.82-0.9-13.16-1.85c-3.43-0.76-6.61-2.72-10.05-3.33
			c-1.85-0.33-4,1.06-6.47,1.81c-1.67-4.32-6.73-6.01-11.64-8.82c-8.54-4.9-18.9-2.94-27.04-8.95c-2.38-1.76-7.59-0.91-11.03,0.2
			c-13.24,4.26-26.26,9.2-39.44,13.65c-2.74,0.93-5.83,0.84-8.87,1.23c-1.4,4.3,0.39,9.95,4.86,11.82c4.36,1.82,9.2,2.48,15.52,4.08
			c-3.35,2.77-5.73,4.74-8.38,6.94c0.41,0.89,0.88,1.89,1.52,3.27c-3.62-0.77-6.68-1.43-10.92-2.34c0.89,5.51,1.58,9.81,2.33,14.46
			c-9.79-2.45-5.35-11.19-8.65-16.81c-0.51,2.57-1.03,5.13-1.57,7.82c-3.58-2.89-3.04-6.46-2.3-10.34c0.44-2.32,2.01-4.2-1.34-7.32
			c-3.67-3.43-4.15-10.27-6.24-16.25c-2.75-0.33-6.37-0.77-10-1.2c-0.09,0.35-0.17,0.71-0.26,1.06c1.53,0.75,3.06,1.5,3.98,1.96
			c-2.22,3.41-4.33,6.66-6.81,10.48c-2.56-2.42-5.2-4.92-8.22-7.79c-6.64,2.96-14.13,6.59-21.87,9.61
			c-3.88,1.52-8.3,1.59-12.28,2.92c-3.08,1.03-5.85,2.98-8.28,4.27c1.49,4.92,2.59,8.58,3.79,12.56c-6.52-0.1-9.93,4.51-12.07,10.14
			c-1.94,5.1-3.22,10.45-4.76,15.71c-1.41,4.8-1.21,9.97-5.7,13.87c-3.22,2.81-0.85,9.02,3.12,10.87c4.68,2.19,9.07,5.11,13.89,6.86
			c1.85,0.67,4.55-1.05,6.87-1.62c1.32-0.32,2.67-0.52,4.01-0.78c-0.14,1.47,0.07,3.09-0.49,4.39c-0.84,1.97-2.13,3.77-3.39,5.53
			c-2.07,2.89-3.03,5.34-0.35,8.78c2.66,3.42,1.13,6.44-3.91,9.21c-0.94-3.23-1.33-6.68-2.92-9.43c-1.9-3.3-4.36-6.7-7.44-8.8
			c-3.23-2.21-4.93-0.28-5.43,3.66c-0.39,3.09-1.99,6.04-3.21,8.99c-0.56,1.35-1.79,2.45-2.23,3.82
			c-3.89,12.03-7.81,24.05-11.34,36.18c-0.67,2.31-0.62,6.06,0.79,7.51c4.5,4.64,5.64,10.41,7.15,16.17
			c0.16,0.62,0.56,1.18,1.05,2.17c3.93,0,8,0,12.06,0c0.06,0.3,0.11,0.6,0.17,0.91c-1.42,0.49-2.84,0.98-4.59,1.59
			c0.2,1.3,0.41,2.67,0.7,4.52c-2.54-0.29-4.93-0.56-7.97-0.91c1.87,6.3,2.91,12.38,8.32,14.8c-0.17,2.55-0.77,4.64-0.36,6.51
			c1.43,6.49,3.37,12.88,4.8,19.37c0.76,3.49,1.67,5.98,6.06,5.37c1.51-0.21,3.18,0.79,4.78,1.24c-0.15,0.68-0.3,1.35-0.45,2.03
			c-2.89-0.48-5.8-0.86-8.65-1.48c-2.99-0.65-4.91-0.1-6.18,3.1c-1.91,4.78-3.9,9.64-6.69,13.92c-5.4,8.3-3.89,16.16,0.57,23.96
			c2.13,3.72,3.87,7.24,2.57,11.73c-0.27,0.94,1.08,2.39,1.73,3.57c1.9,3.42,6.29,6.1,3.18,11.13c-1.3-0.67-2.6-1.35-4.31-2.24
			c-2.23,8.66-4.44,17.18-6.64,25.71c-0.59,0.02-1.18,0.04-1.77,0.06c-0.63-1.49-1.81-2.98-1.81-4.46
			c-0.01-8.81,0.24-17.63,0.44-26.44c0.03-1.32,0.6-2.74,0.28-3.95c-1.88-7.1-4.24-14.08-5.86-21.24
			c-0.95-4.21-0.82-8.66-1.24-12.99c-0.16-1.69-0.51-3.37-0.85-5.52c6.78-4.18,7.49-12.09,9.31-19.45c0.24-0.96,0.2-1.98,0.29-2.98
			c1.28-13.86,1.28-13.86-12.17-17.49c0.98-1.79,1.91-3.5,2.85-5.22c2.33-4.26,2.15-8.43,0.23-12.9
			c-4.44-10.34-8.57-20.82-12.75-31.06c-1.53,5.34-5.14,3.83-9.78,1.89c-5.56-2.33-8.92,0.19-10.32,6.22
			c-0.29,1.24-0.64,2.75-1.51,3.53c-7.75,6.99-7.59,17.23-10.39,26.12c-0.99,3.15,1.63,7.44,2.91,12.41
			c-2.17,0.41-5.25,0.64-8.05,1.66c-1.3,0.48-2.94,2.52-2.88,3.79c0.28,6.29,0.6,12.65,1.84,18.8c0.93,4.62,2.75,9.26,5.1,13.36
			c3.62,6.34,4.01,12.4,1.2,19.06c-1.06,2.51-1.02,5.46-1.65,8.17c-0.58,2.5-1.63,4.92-2.05,7.44c-0.69,4.15-1.37,8.35-1.47,12.54
			c-0.19,8.3,0.13,16.61-0.02,24.92c-0.02,1.29-1.46,2.55-2.25,3.82c-0.85-1.28-2.17-2.47-2.46-3.86
			c-1.67-7.97-3.09-15.99-4.78-24.92c-1.73,2.41-2.98,4.15-4.3,5.99c-2.63-6.44-1.97-8.5,4.04-12.04
			c-2.1-7.02,0.76-13.11,4.55-18.96c3.35-5.17,2.51-10.69,0.42-15.81c-3.01-7.37-6.73-14.45-10.35-22.07
			c-3.92,0.83-7.88,1.66-12.25,2.59c0-3.35,1.37-4.83,4.22-4.21c3.27,0.72,4.49-0.72,5.23-3.61c1.24-4.81,2.76-9.55,4.37-15.03
			c-3.09,1.51-5.72,2.79-8.36,4.08c-0.21-0.3-0.42-0.6-0.63-0.89c3.84-3.47,7.68-6.94,11.76-10.62c-1.47-1.66-2.84-3.2-4.7-5.31
			c9.72-4.87,10.47-14.43,12.82-23.16c1.49-5.52,1.96-11.21,5.83-16.14c1.55-1.97,0.84-6.46-0.04-9.46
			c-3.18-10.85-6.5-21.69-10.49-32.27c-2.54-6.74-3.16-13.09-0.54-19.8c0.77-1.97,1.07-4.12,1.69-6.58
			c-2.54-0.35-4.73-0.66-6.33-0.88c0.71-3.72,2-7.2,1.85-10.62c-0.15-3.32-0.2-7.71-6.84-7.62c6.78-4.72,5.34-10.35,3.45-15.46
			c-2.69-7.25-6.3-14.14-9.35-21.26c-0.94-2.21-1.66-4.61-1.91-6.99c-0.74-6.97-2.86-9.2-9.42-10.98
			c-8.97-2.44-17.86-5.24-26.69-8.16c-5.21-1.72-10-2.39-14.28,1.97c-0.64,0.65-1.66,0.92-2.81,1.53c-0.88-2.3-1.64-4.26-2.46-6.39
			c-1.58,0-3.17,0-5.54,0c1.55-1.79,2.73-3.15,3.91-4.52c-0.15-0.51-0.3-1.03-0.45-1.54c-3.82,0.83-7.65,1.65-12.15,2.63
			c-3.2-3.41-8.07-3.38-12.79,0.61c-1.22,1.03-3.66,1.72-5.08,1.23c-11.14-3.85-22.34-7.64-33.19-12.23
			c-7.86-3.33-14.99-4.41-22.83,0.1c-4.22,2.43-9.32,3.35-14.26,5.04c0.5,1.17,0.98,2.29,1.62,3.77c1.29-1.15,2.24-2,3.89-3.48
			c0.17,0.54,0.3,1.02,0.46,1.48c2.14,6.37-5.34,6.53-6.51,11.03c-1.78-2.57-2.45-6-6.74-3.27c0.14-2.83,0.24-4.73,0.37-7.38
			c-7.36,2.18-14.16,4.19-20.95,6.19c-6.54,1.93-13.05,3.98-19.65,5.71c-2.73,0.72-3.88,1.88-3.62,4.79
			c0.27,3.02,0.16,6.16-5.16,6.75c1.05-4.96,2-9.49,3.03-14.38c-2.5-0.96-4.94-1.61-7.08-2.78c-3.89-2.14-7.93-4.21-11.33-7.01
			c-4.62-3.81-9.31-4.96-14.76-2.5c-3.03,1.37-5.88,3.22-9.01,4.27c-3.73,1.25-7.68,1.81-11.5,2.81c-1.65,0.43-3.68,0.8-4.72,1.94
			c-2.44,2.68-4.88,2.57-6.69,0.05c-2.97-4.15-6.91-5.35-11.65-5.52c-2.13-0.07-4.34-0.55-6.32-1.33c-1.44-0.57-2.56-1.93-3.82-2.95
			c1.4-0.69,2.81-1.97,4.21-1.96c6.82,0.05,13.65,0.84,20.45,0.56c4.29-0.18,8.53-1.76,12.77-2.78c1.1-0.26,2.38-1.39,3.16-1.07
			c5.39,2.18,9.07-0.44,13.65-3.04c5.04-2.88,11.67-2.61,16.78,0.74c10.62,6.98,22.75,6.54,34.93,8.55
			c1.18-4.56,2.28-8.86,3.58-13.88c3.41,2.1,6.58,4.04,10.02,6.16c1.43-5.03,4.01-8.12,9.62-5.96c0.3,0.11,0.68,0.14,0.99,0.05
			c9.74-2.68,19.48-5.39,30.59-8.47c-2.94-1.8-4.43-2.71-6.2-3.8c0.8-2.5,1.6-4.98,2.51-7.83c-1.06-0.72-2.22-1.5-3.54-2.39
			c1.99-1.55,3.92-3.06,5.73-4.47c-7.3-2.76-14.49-5.48-22.01-8.33c-0.53,1.18-1.17,2.61-1.46,3.25c-2.88-0.98-5.63-1.86-8.33-2.85
			c-2.11-0.78-5.05-1.12-6.07-2.67c-2.92-4.45-5.34-3.48-8.25-0.34c-0.98,1.05-2.12,1.94-3.69,3.36c-0.85-4.05-1.79-7.37-2.19-10.76
			c-0.33-2.75-1.27-3.73-4.14-3.36c-5.11,0.65-10.27,1.1-15.42,1.35c-6.38,0.31-12.11,1.86-16.59,6.81
			c-0.76,0.84-2.42,1.47-3.51,1.28c-7.62-1.3-15.65-1.74-22.68-4.6c-7.24-2.93-13.96-4.42-21.71-3.33
			c-7.04,0.99-14.25,0.8-21.39,0.88c-1.03,0.01-2.07-1.37-3.11-2.11c0.98-0.86,1.85-2.25,2.97-2.49c5.53-1.19,11.13-2.02,16.68-3.08
			c2.08-0.4,4.11-1.08,6.72-1.77c-1.27-1.87-2.22-3.27-3.35-4.93c3.6-0.98,5.99,0.04,7.4,3.22c1.37,3.1,3.53,3.31,6.81,3.26
			c4.66-0.07,9.6,0.77,13.96,2.43c5.51,2.1,10.04,2.38,15.57-0.57c6.54-3.48,13.93-5.36,21.63-8.18
			c-0.55-5.06-1.11-10.15-1.65-15.15c3.7,0,8.5,0,14.86,0c-4.21,4.18-13.03,1.81-10.66,10.6c3.95,0.65,8.35,1.34,12.74,2.09
			c5.51,0.94,11.02,1.89,16.51,2.94c0.71,0.14,1.57,0.73,1.92,1.36c3.26,5.87,9.07,5.78,15.38,7.05c-1.97-3.19-3.44-5.55-5.14-8.3
			c2.21,0.16,3.99,0.29,6.03,0.43c0.62-1.58,1.24-3.18,2.29-5.86c0.86,3.71,1.48,6.33,2.18,9.33c1.78-0.25,3.35-0.48,5.3-0.76
			c0.82,2.75,1.66,5.57,2.58,8.68c1.43-0.8,2.69-1.5,3.98-2.23c1.16,6.41,6.28,9.98,12.81,8.97c6.94-1.07,11.64-5.35,15.48-10.86
			c3.34-4.78,4.46-5.06,8.17-0.81c2.26,2.58,4.33,2.32,7.06,1.29c6.51-2.47,13.17-4.56,19.63-7.16c4.26-1.71,1.94-4.28,0.37-6.68
			c-4.45-6.79-8.83-13.62-13.18-20.47c-0.67-1.06-1-2.34-1.85-4.38c4.29,1.33,7.85,2.44,12.01,3.73c-0.19-3.24-0.34-5.85-0.5-8.72
			c3.1-1.14,5.11-0.21,5.75,3.11c0.44,2.28,0.88,4.63,0.81,6.93c-0.1,3.33,0.27,6.02,4.91,6.15c-2.64,5.78-0.61,10.1,3.13,14.19
			c1.88,2.05,2.98,4.8,4.64,7.09c0.88,1.21,2.2,2.09,3.33,3.12c0.67-1.4,1.39-2.78,1.99-4.21c0.24-0.58,0.22-1.27,0.38-2.31
			c1.3,0.69,2.39,1.26,3.72,1.96c1.18-2.37,2.28-4.58,4-8.02c2.98,2.6,5.57,4.86,9.03,7.89c6.53-2.67,15.2-6.03,23.66-9.85
			c1.54-0.7,3.33-3.46,3.1-4.99c-0.74-4.95-1.1-10.23-6.39-13.31c-3.41-1.98-6.34-4.79-9.76-7.45c2.23-3.78,4.81-6.68,9.19-6.95
			c4.36-0.26,6.32,2.99,8.17,6.28c2.94,5.25,9.68,9.34,13.87,8.39c-0.48,3.26-0.96,6.46-1.43,9.67c0.59,0.13,1.18,0.26,1.77,0.39
			c8.91-25.41,22.59-49.55,19.62-78.27c-1.68-0.48-3.41-0.97-5.64-1.59c1.02-1.91,2.18-3.51,2.77-5.3c1.05-3.21,1.71-6.55,2.61-9.81
			c1.18-4.29,2.35-8.58,3.67-12.82c2.16-6.93,4.61-13.77,6.62-20.73c1.01-3.5-0.25-6.48-2.4-9.69c-2.06-3.07-3.37-7.37-3.21-11.05
			c0.39-8.71-1.96-16-7.81-22.42c-1.05-1.15-1.59-3.73-1.06-5.15c1.15-3.04,0.34-4.68-1.89-6.85c-1.92-1.87-3.31-4.7-3.99-7.35
			c-0.89-3.51-1.02-7.25-1.16-10.9c-0.06-1.53,0.44-3.25,1.18-4.62c3.32-6.14,6.48-12.41,10.33-18.2
			c5.62-8.45,4.19-16.45-0.76-24.27c-2.64-4.17-4.31-8.19-1.92-13.15c-2.81-1.12-4.52-1.55-5.46,1.94c-0.5,1.88-2.4,3.38-4.39,4.69
			c5.63-6.59,1.23-14.52,3.5-22.92c1.9,2.89,3.31,5.03,4.72,7.17c0.5-0.31,0.99-0.62,1.49-0.93c1.33-7.13,2.66-14.27,3.98-21.4
			c0.03-0.16,0.1-0.39,0.02-0.49c-4.96-6.17,0.99-12.14,0.29-18.17c-0.36-3.09-1.64-6.07-2.5-9.1
			C347.67,16.7,347.56,16.83,347.56,16.83z M389.84,566.74c0.12,0.39,0.19,2.32,1.18,3.44c0.91,1.03,3.84,1.97,4.11,1.62
			c3.39-4.48,6.45-9.21,9.6-13.88c-0.41-0.3-0.83-0.6-1.24-0.9c-1.46,1.19-2.93,2.39-4.52,3.69c-4.17-5.88-2.84-11.84-1.45-18.35
			c3.65,0,7.23,0,11.25,0c-0.34-9.28-0.56-17.89-9-22.35c0.89-3.77,2.91-7.38,2.25-10.42c-1.98-9.14-5-18.05-7.77-27.59
			c0.88-0.62,2.1-1.74,3.54-2.46c7.57-3.78,12.72-12.63,10.59-20.55c-2.86-10.65-0.75-20.85,1.39-31.09
			c0.37-1.75,2.81-4.22,4.45-4.35c8.45-0.64,17.11-1.75,25.38-0.56c10.6,1.53,18.78-0.18,24.21-9.98c0.32-0.57,0.94-0.97,1.26-1.55
			c1.44-2.56,3.24-3.02,6.17-2.18c9.59,2.74,19.3,5.1,28.96,7.59c8.97,2.32,17.95,4.62,26.55,6.83c3.07-4.05-1.73-10.3,4.78-12.38
			c4.5-1.44,8.99-1.66,13.62,0.76c-0.92,2.05-1.68,3.75-2.45,5.45c0.3,0.19,0.6,0.38,0.89,0.56c4.83-3.31,9.66-6.61,14.89-10.19
			c-3.91-3.08-8.2-5.22-5.77-10.78c0.25-0.57-1.31-2.42-2.39-2.97c-1.22-0.63-2.84-0.47-4.74-0.71c2.22-5.81,6.22-3.98,10.11-2.69
			c0.87-1.68,1.6-3.09,2.3-4.45c-5.43-3.48-10.56-6.78-15.71-10.08c0.67,2.59,1.25,4.8,1.83,7.01c-2.95,0.13-5.92,0.18-8.86,0.43
			c-2.62,0.22-5.21,0.66-8.14,1.04c0.24-4.31,0.5-8.98,0.78-13.96c-2.36,0.5-3.97,0.92-5.61,1.18c-9.86,1.51-18.51,8.71-29.25,6.2
			c-0.7-0.16-1.6,0.36-2.37,0.66c-6.27,2.47-12.59,4.82-18.76,7.51c-3.73,1.63-5.57,0.82-7.23-2.98
			c-3.74-8.58-9.83-12.11-19.1-11.33c-8.77,0.74-17.34,1.81-26.26-0.18c-8.57-1.91-10-2.62-11.57-11.44
			c-1.53-8.59-0.2-16.81,1.49-25.19c1.87-9.28-2.19-15.88-10.75-19.47c-1.73-0.72-3.23-2.01-3.84-2.4c0.72-3.92,1.2-6.83,1.82-9.71
			c0.35-1.6,0.93-3.14,1.43-4.7c1.42-4.4,3-8.76,4.24-13.21c2.22-7.99,4.17-16.05,6.36-24.04c0.82-2.99,1.99-5.89,3.21-9.44
			c-5.25,0-9.87,0-14.43,0c0-3.23,0.32-6.04-0.07-8.75c-0.64-4.46-1.09-8.51,5.49-8.97c-1.05-2.07-1.84-3.62-2.68-5.27
			c-1.27,1.1-2.17,1.89-3.16,2.74c-0.35-3.56-0.67-6.75-1.03-10.37c-7.14,2.27-2.69,10.36-8.52,12.95c0.35-2.2,0.63-3.91,0.89-5.57
			c-6.71-2.81-7.36-2.51-10.26,4.4c-1.09-1.91-2.28-4.1-1.95-6.03c0.62-3.67-0.84-4.77-4.25-5.01c-2.77,4.44-5.5,8.8-8.72,13.96
			c2.62-0.54,4.01-0.83,6.73-1.39c0.32,5.87,0.62,11.25,0.96,17.33c-4.47,0-8.54,0-13.35,0c5.21,20.73,10.23,40.68,15.45,61.4
			c-0.65,0.49-1.95,1.82-3.52,2.57c-8.98,4.27-11.32,11.88-11.21,21.04c0.12,9.63,0.02,19.28-0.34,28.9
			c-0.05,1.48-1.8,3.95-3.08,4.18c-10.74,1.92-21.33,5.11-32.55,2.32c-8.29-2.06-15.86,2.47-19.51,10.2
			c-0.84,1.78-2.33,3.26-2.77,3.85c-21.01-5.38-40.78-10.44-60.88-15.59c0.41,4.48,0.81,8.88,1.27,13.87
			c-4.93-0.54-9.86,0.86-12.4-4.83c1.51-2,2.95-3.91,4.75-6.28c-5.48-1.26-9.34,0.75-12.8,3.66c-3.45,2.9-6.66,6.09-10.2,9.37
			c1.04,1.76,2.37,4.01,3.7,6.27c-0.55-0.05-1.1-0.1-1.65-0.15c-1.22,4.85-2.6,9.66-3.52,14.56c-0.21,1.12,0.82,3.13,1.85,3.72
			c4.66,2.67,9.53,4.98,14.32,7.42c0.38-1.64,0.03-2.3-0.23-3c-0.42-1.14-1.43-2.8-1.01-3.36c0.73-0.97,2.38-1.82,3.6-1.76
			c4.41,0.22,8.8,0.83,13.4,1.31c-0.21,4.15-0.38,7.72-0.59,11.79c13.99-1.72,27-4.84,39.69-9.57c4.62-1.72,9.54-2.71,14.38-3.76
			c2.75-0.6,4.69,0.32,6.49,3.11c5.68,8.79,12.38,10.86,22.59,8.37c3.51-0.86,7.28-1.33,10.87-1.06c6.29,0.47,12.52,1.82,18.81,2.45
			c3.4,0.34,5.12,1.83,5.69,5.09c1.71,9.81,3.67,19.41,0.75,29.56c-3.18,11.04,0.27,16.8,10.95,21.09c3.76,1.51,4.55,2.98,3.17,7.37
			c-5.8,18.4-10.84,37.05-16.31,56.11c3.35,0,5.51,0,7.66,0c2.29,0,4.58,0,7.19,0c-0.61,2.06-1.4,3.63-1.45,5.21
			c-0.05,1.78,0.61,3.57,0.88,5.38c0.47,3.17-0.62,4.86-4.12,4.25c-1.07-0.18-2.17-0.2-3.33-0.3c1.3,10.27,6.32,15.71,12.78,14.17
			c0.74-3.25-2.56-7.79,2.6-9.55c0.95,2.12,1.44,5.26,2.71,5.62C383.84,567.91,386.72,567.02,389.84,566.74z M558.04,401.39
			c6.37,0.82,7.52-0.11,7.37-5.48c-2.42,0-4.84,0-7.37,0C558.04,397.86,558.04,399.5,558.04,401.39z M387.7,573.76
			c-3.5,0-5.69,0-7.88,0c-0.34,0.37-0.68,0.75-1.02,1.12c1.6,1.86,3.2,3.73,4.81,5.6C384.84,578.46,386.07,576.44,387.7,573.76z"/>
	</g>
</g>
</svg>
